<svg xmlns="http://www.w3.org/2000/svg" xmlns:xlink="http://www.w3.org/1999/xlink" version="1.1" id="Capa_1" x="0px" y="0px" viewBox="0 0 408 408" style="width: 200px; height: 200px; transform-origin: 50% 50%; transform: scaleX(1) scaleY(1) rotate(0deg);" xml:space="preserve" preserveAspectRatio="xMidYMid meet">
<g fill="#DEE0E7" style="fill:#DEE0E7;stroke:none" stroke="none">
	<g id="more-horiz" fill="#DEE0E7" style="fill:#DEE0E7;stroke:none" stroke="none">
		<path d="M51,153c-28.05,0-51,22.95-51,51s22.95,51,51,51s51-22.95,51-51S79.05,153,51,153z M357,153c-28.05,0-51,22.95-51,51    s22.95,51,51,51s51-22.95,51-51S385.05,153,357,153z M204,153c-28.05,0-51,22.95-51,51s22.95,51,51,51s51-22.95,51-51    S232.05,153,204,153z" fill="#DEE0E7" style="fill:#DEE0E7;stroke:none" stroke="none"/>
	</g>
</g>
<g fill="#DEE0E7" style="fill:#DEE0E7;stroke:none" stroke="none">
</g>
<g fill="#DEE0E7" style="fill:#DEE0E7;stroke:none" stroke="none">
</g>
<g fill="#DEE0E7" style="fill:#DEE0E7;stroke:none" stroke="none">
</g>
<g fill="#DEE0E7" style="fill:#DEE0E7;stroke:none" stroke="none">
</g>
<g fill="#DEE0E7" style="fill:#DEE0E7;stroke:none" stroke="none">
</g>
<g fill="#DEE0E7" style="fill:#DEE0E7;stroke:none" stroke="none">
</g>
<g fill="#DEE0E7" style="fill:#DEE0E7;stroke:none" stroke="none">
</g>
<g fill="#DEE0E7" style="fill:#DEE0E7;stroke:none" stroke="none">
</g>
<g fill="#DEE0E7" style="fill:#DEE0E7;stroke:none" stroke="none">
</g>
<g fill="#DEE0E7" style="fill:#DEE0E7;stroke:none" stroke="none">
</g>
<g fill="#DEE0E7" style="fill:#DEE0E7;stroke:none" stroke="none">
</g>
<g fill="#DEE0E7" style="fill:#DEE0E7;stroke:none" stroke="none">
</g>
<g fill="#DEE0E7" style="fill:#DEE0E7;stroke:none" stroke="none">
</g>
<g fill="#DEE0E7" style="fill:#DEE0E7;stroke:none" stroke="none">
</g>
<g fill="#DEE0E7" style="fill:#DEE0E7;stroke:none" stroke="none">
</g>
</svg>